<?xml version="1.0" encoding="UTF-8"?>
<svg id="Layer_1" data-name="Layer 1" xmlns="http://www.w3.org/2000/svg" viewBox="0 0 1000 1000">
  <defs>
    <style>
  path { fill: #1c1d20; }
  @media (prefers-color-scheme: dark) {
    path { fill: #f2f2f0; }
  }
    </style>
  </defs>
  <path class="cls-1" d="M541.74,173.24c25.81.98,48.19,2.62,67.14,4.92,18.95,2.3,35.89,5.41,50.81,9.35,14.92,3.94,29.64,8.86,44.16,14.76,62.1,25.59,93.15,68.89,93.15,129.92,0,33.46-11.09,61.51-33.27,84.15s-57.06,41.17-104.64,55.61c52.42,11.15,91.94,30.18,118.56,57.08,26.61,26.9,39.92,60.69,39.92,101.37,0,37.4-11.09,71.19-33.27,101.37s-53.03,52.82-92.55,67.91c-14.52,5.91-28.83,10.66-42.95,14.27-14.11,3.61-29.64,6.4-46.58,8.37-16.94,1.97-36.09,3.44-57.46,4.43s-46.58,1.48-75.61,1.48H182.44V171.77h264.93c37.1,0,68.55.49,94.36,1.48ZM573.19,410.93c22.58-11.16,33.87-29.2,33.87-54.13s-11.29-42.81-33.87-53.64c-22.58-10.83-59.68-16.24-111.3-16.24h-93.15v140.74h93.15c51.62,0,88.71-5.58,111.3-16.73ZM461.89,713.08c30.65,0,54.84-1.64,72.58-4.92,17.74-3.28,33.47-8.53,47.18-15.75,25-14.44,37.5-36.74,37.5-66.93,0-57.74-47.18-86.61-141.54-86.61h-108.88v174.2h93.15Z"/>
</svg>