<?xml version="1.0" encoding="UTF-8"?>
<svg id="Layer_2" data-name="Layer 2" xmlns="http://www.w3.org/2000/svg" viewBox="0 0 403.19 424.3">
  <defs>
    <style>
      .cls-1 {
        fill: #64feda;
      }
    </style>
  </defs>
  <g id="Layer_1-2" data-name="Layer 1">
    <g>
      <path class="cls-1" d="m87.84,39.68c-7.19,6.58-10.78,16.28-10.78,29.13,0,3.06.61,8.56,1.83,16.51l10.09,55.96c.92,5.5,1.38,10.71,1.38,15.6,0,14.38-4.13,26.22-12.38,35.55-8.26,9.33-19.42,15.52-33.49,18.58,14.06,3.06,25.23,9.25,33.49,18.58,8.26,9.33,12.38,21.18,12.38,35.55,0,4.9-.46,10.09-1.38,15.6l-10.09,55.96c-.92,5.81-1.38,11.17-1.38,16.05,0,12.84,3.51,22.63,10.55,29.36,7.03,6.72,17.43,10.09,31.19,10.09h5.96v29.82h-6.42c-24.47,0-43.05-5.89-55.73-17.66-12.69-11.78-19.04-27.75-19.04-47.93,0-7.03.61-13.6,1.83-19.72l10.55-55.96c.61-2.44.92-6.11.92-11.01,0-12.84-4.59-23.39-13.76-31.65-9.17-8.26-23.7-12.54-43.58-12.84v-28.44c19.87-.3,34.4-4.59,43.58-12.84,9.17-8.26,13.76-18.81,13.76-31.65,0-4.89-.31-8.56-.92-11.01l-10.55-55.96c-1.23-6.11-1.83-12.69-1.83-19.72,0-20.18,6.34-36.16,19.04-47.93C75.76,5.89,94.33,0,118.8,0h6.42v29.82h-5.96c-13.76,0-24.24,3.29-31.42,9.86Z"/>
      <path class="cls-1" d="m155.95,391.27c28.74-21.41,51.07-47.86,66.97-79.36,15.9-31.49,23.85-65.29,23.85-101.37s-7.96-69.87-23.85-101.37c-15.9-31.49-38.23-57.95-66.97-79.36l19.27-26.15c21.71,14.99,40.44,33.18,56.19,54.59,15.75,21.41,27.9,45.11,36.47,71.1,8.56,26,12.84,53.06,12.84,81.19s-4.29,55.2-12.84,81.19c-8.56,26-20.72,49.7-36.47,71.1-15.75,21.4-34.48,39.6-56.19,54.58l-19.27-26.15Z"/>
      <path class="cls-1" d="m358.7,291.73h38.07l-46.79,127.06-33.94,5.5,42.66-132.57Zm-3.44-98.85c-5.35-5.35-8.03-11.85-8.03-19.49s2.67-14.14,8.03-19.5c5.35-5.35,12-8.03,19.95-8.03s14.6,2.68,19.95,8.03c5.35,5.35,8.03,11.85,8.03,19.5s-2.68,14.15-8.03,19.49c-5.35,5.35-12.01,8.03-19.95,8.03s-14.61-2.67-19.95-8.03Z"/>
    </g>
  </g>
</svg>