<svg width="824" height="824" viewBox="0 0 824 824" fill="none" xmlns="http://www.w3.org/2000/svg">
<rect width="824" height="824" rx="185.4" fill="black"/>
<g clip-path="url(#clip0_1_12)">
<path d="M237.075 159.982C226.018 169.597 220.498 183.77 220.498 202.547C220.498 207.019 221.436 215.055 223.312 226.672L238.828 308.443C240.242 316.479 240.95 324.092 240.95 331.238C240.95 352.25 234.599 369.551 221.913 383.185C209.211 396.818 192.05 405.863 170.414 410.334C192.034 414.806 209.211 423.851 221.913 437.484C234.614 451.117 240.95 468.433 240.95 489.431C240.95 496.591 240.242 504.174 238.828 512.226L223.312 593.996C221.897 602.486 221.19 610.318 221.19 617.449C221.19 636.211 226.587 650.517 237.413 660.351C248.223 670.17 264.216 675.095 285.375 675.095H294.54V718.668H284.668C247.039 718.668 218.468 710.062 198.97 692.863C179.456 675.65 169.691 652.314 169.691 622.826C169.691 612.554 170.629 602.954 172.505 594.011L188.728 512.24C189.666 508.675 190.143 503.312 190.143 496.152C190.143 477.39 183.085 461.974 168.984 449.904C154.883 437.835 132.539 431.58 101.969 431.142V389.585C132.524 389.146 154.867 382.878 168.984 370.823C183.085 358.753 190.143 343.337 190.143 324.575C190.143 317.429 189.666 312.066 188.728 308.486L172.505 226.716C170.614 217.788 169.691 208.173 169.691 197.901C169.691 168.413 179.44 145.062 198.97 127.864C218.499 110.607 247.055 102 284.683 102H294.555V145.574H285.39C264.231 145.574 248.116 150.381 237.075 159.982Z" fill="#64FEDA"/>
<path d="M341.81 673.736C386.005 642.451 420.342 603.801 444.792 557.772C469.242 511.758 481.467 462.369 481.467 409.647C481.467 356.926 469.227 307.551 444.792 261.522C420.342 215.508 386.005 176.844 341.81 145.559L371.442 107.348C404.826 129.252 433.628 155.832 457.848 187.117C482.067 218.402 500.75 253.033 513.929 291.01C527.092 329.002 533.673 368.543 533.673 409.647C533.673 450.752 527.077 490.307 513.929 528.285C500.766 566.277 482.067 600.908 457.848 632.178C433.628 663.448 404.826 690.043 371.442 711.932L341.81 673.721V673.736Z" fill="#64FEDA"/>
<path d="M653.586 528.285H712.128L640.177 713.949L587.986 721.985L653.586 528.27V528.285ZM648.296 383.842C640.069 376.025 635.948 366.527 635.948 355.363C635.948 344.199 640.054 334.701 648.296 326.869C656.523 319.051 666.749 315.135 678.974 315.135C691.199 315.135 701.425 319.051 709.652 326.869C717.879 334.686 722 344.184 722 355.363C722 366.541 717.879 376.039 709.652 383.842C701.425 391.66 691.184 395.576 678.974 395.576C666.764 395.576 656.508 391.674 648.296 383.842Z" fill="#64FEDA"/>
</g>
<defs>
<clipPath id="clip0_1_12">
<rect width="620" height="620" fill="white" transform="translate(102 102)"/>
</clipPath>
</defs>
</svg>
