<svg width="711" height="230" viewBox="0 0 711 230" fill="none" xmlns="http://www.w3.org/2000/svg">
<path d="M12.7643 174.893C11.4645 174.916 10.2612 174.737 9.15263 174.256C5.32528 172.723 3.37147 169.656 3.28944 164.957C3.20742 160.258 5.02161 155.325 8.81281 149.058C12.3093 143.096 17.8985 136.698 25.5786 129.763C33.2587 122.827 43.3403 115.95 55.7232 109.133C56.7811 106.715 57.7391 104.297 58.5988 101.982C62.8974 90.4053 65.0609 82.5663 64.9876 78.367L64.9789 77.867L54.0127 91.3605C50.8813 95.3157 47.6481 99.1728 44.3115 102.832C37.6381 110.149 31.9036 113.95 27.3043 114.03C22.705 114.11 23.5944 113.495 22.3754 112.416C19.7356 110.162 18.3713 106.485 18.284 101.486C18.1967 96.4863 18.6687 94.8778 19.604 91.161C20.9165 86.1373 23.1359 81.4979 26.4603 77.1392C27.3428 76.1236 28.3356 75.7062 29.5354 75.6853C30.7353 75.6643 31.2404 75.9556 31.9508 76.5433C32.9646 77.3257 33.382 78.3186 33.4029 79.5184C33.4239 80.7182 33.1326 81.2233 32.5467 82.0337C29.9064 85.4803 28.1713 89.2112 27.1413 93.2297C26.392 96.1433 26.0392 98.8498 26.0811 101.249C26.123 103.649 26.4561 105.544 27.0699 106.333L27.3699 106.328C28.7697 106.303 30.5537 105.372 32.7219 103.534C36.369 100.47 41.4705 94.7799 48.0264 86.4642C50.8648 82.9141 53.5103 79.7675 56.0628 77.0225C60.1836 72.4499 63.743 70.0874 66.5425 70.0386C69.3421 69.9897 68.6474 70.3019 69.7595 70.9826C71.5802 72.151 72.6201 74.4332 72.6812 77.9326C72.7842 83.8317 70.7346 92.4688 66.5342 103.944C78.3399 98.437 92.0558 93.4969 107.882 89.12C108.182 89.1148 108.58 89.0078 108.88 89.0026C109.58 88.9903 110.283 89.1781 111.092 89.6641C112.204 90.3448 112.723 91.4359 112.747 92.8356C112.772 94.2354 112.574 94.3389 112.086 95.0475C111.7 95.8544 110.907 96.2683 109.912 96.5857C91.1026 101.915 75.2045 107.893 62.2217 114.721C57.2284 126.61 51.2248 137.916 44.4109 148.637C37.7899 158.954 31.2184 166.37 24.3962 170.889C19.9423 173.568 16.1655 174.934 13.066 174.988L12.7643 174.893ZM12.9281 167.089C14.4279 167.063 16.8118 166.121 19.9782 164.166C25.711 160.265 31.5966 153.661 37.5334 144.256C42.2087 137.073 46.4737 129.298 50.3317 121.129C41.3273 126.687 34.0227 132.216 28.2161 137.618C22.5112 143.118 18.2009 148.294 15.3816 152.944C12.4659 157.796 10.9359 161.823 10.99 164.923C11.0441 168.022 11.2179 166.519 11.6213 166.712C12.0248 166.905 12.4247 166.898 12.8246 166.891L12.9281 167.089ZM116.455 116.174C115.255 116.195 114.156 116.215 113.152 116.032C106.829 114.742 103.57 111.399 103.474 105.899C103.378 100.4 104.731 97.6763 107.553 93.2264C110.471 88.4747 113.901 84.4142 117.941 80.9432C121.981 77.4722 125.65 75.7078 128.95 75.6503C132.249 75.5927 132.46 76.1891 133.982 77.4627C136.117 79.4257 137.162 82.0079 137.22 85.3074C137.277 88.6069 136.7 89.9172 135.44 92.2395C134.181 94.5618 132.216 96.5964 129.344 98.2468C126.871 99.7902 123.584 100.548 119.484 100.619C115.385 100.691 115.081 100.496 112.575 100.14C111.61 102.157 111.14 103.865 111.166 105.365L111.18 106.165C111.406 107.661 113.22 108.43 116.719 108.369C120.219 108.308 128.588 106.461 138.027 102.896C144.486 100.483 150.243 97.982 155.499 95.3899C160.754 92.7978 164.317 90.6353 166.187 88.9024C166.975 88.1885 167.867 87.7729 168.767 87.7572L169.667 87.7415C170.267 87.731 170.874 88.1205 171.688 88.9064C172.502 89.6923 172.817 90.5869 172.833 91.4868L172.849 92.3867C172.882 94.2864 168.537 97.4627 159.811 101.816C154.063 104.816 147.709 107.528 140.754 110.15C135.288 112.145 130.215 113.734 125.233 114.821C121.846 115.58 118.953 116.031 116.354 116.076L116.455 116.174ZM119.05 92.9257C121.85 92.8768 124.04 92.3385 125.724 91.4089C128.298 89.8638 129.563 87.8414 129.517 85.2418C129.495 83.942 129.084 83.3491 128.584 83.3578C128.084 83.3665 127.59 83.6752 126.699 84.1908C123.434 86.2481 120.385 89.2018 117.45 92.9536L119.15 92.9239L119.05 92.9257ZM178.403 124.095L177.503 124.11C177.003 124.119 176.396 123.73 175.584 123.044C174.77 122.258 174.455 121.363 174.434 120.163C174.413 118.963 174.802 118.357 175.488 117.544C180.395 112.158 184.604 106.884 188.216 101.82C191.924 96.5544 193.665 93.1235 193.637 91.5237C193.609 89.924 192.413 90.1449 190.013 90.1868C187.613 90.2287 185.617 90.4635 182.125 90.9246C178.93 91.2804 175.834 91.5344 173.035 91.5833C170.235 91.6322 168.53 91.3619 166.522 90.8969C162.4 89.6686 160.355 87.1039 160.287 83.2045C160.219 79.3051 161.968 76.3741 165.303 72.6154C168.246 69.3635 171.8 66.701 176.263 64.5228C179.436 62.9672 182.724 62.2097 186.023 62.1521C189.323 62.0945 188.324 62.212 189.428 62.3928C190.531 62.5735 191.44 63.0577 192.055 63.9471C192.466 64.5401 192.678 65.2365 192.692 66.0363C192.718 67.5361 192.137 68.6464 191.051 69.4655C190.359 69.8776 189.662 70.0898 188.962 70.102L188.162 70.116C187.459 69.9283 186.759 69.9405 186.059 69.9527C183.76 69.9928 181.172 70.7381 178.497 72.185C175.822 73.6319 173.354 75.4753 171.196 77.9133C170.017 79.1341 169.24 80.4478 168.659 81.5581C168.271 82.265 168.08 82.7684 168.087 83.1684L168.091 83.3683C168.091 83.3683 168.091 83.3683 168.191 83.3666L168.591 83.3596C169.897 83.7369 171.401 83.9106 173.2 83.8792C175 83.8478 177.696 83.6007 180.99 83.2432L181.19 83.2397C184.085 82.8891 186.781 82.642 189.38 82.5967C191.98 82.5513 191.08 82.567 192.782 82.6373C194.581 82.6059 196.397 83.4743 198.423 84.9392C200.152 86.6093 201.087 88.5933 201.129 90.9929C201.195 94.7923 199.276 99.4265 195.476 105.194C200.037 102.914 204.596 100.534 209.258 98.3521C217.194 94.6131 224.232 90.9897 230.272 87.4837C230.867 87.1733 231.463 86.9629 232.163 86.9507C233.663 86.9245 234.873 87.5034 235.696 88.7893C236.006 89.384 236.218 90.0804 236.229 90.6803C236.255 92.18 235.674 93.2903 234.388 94.1129C228.25 97.7206 221.014 101.447 212.68 105.293L212.284 105.5C206.233 108.406 200.383 111.309 194.835 114.306C189.286 117.304 184.537 120.287 180.79 123.353C180.099 123.865 179.305 124.179 178.405 124.195L178.403 124.095ZM231.34 131.472C228.64 131.519 227.206 129.544 227.136 125.544L227.122 124.744C227.339 108.538 230.224 90.485 235.68 70.6868C241.798 48.7767 249.351 28.8418 258.338 10.7822C259.013 9.37024 260.201 8.64941 261.7 8.62323C263.2 8.59705 262.902 8.70227 263.507 8.99176C264.921 9.7672 265.64 10.8548 265.666 12.3546C265.692 13.8544 265.587 13.5562 265.298 14.1613C261.336 22.1316 257.492 31.1001 253.567 41.1701C245.91 60.9068 240.446 80.2051 237.372 98.8616C241.414 89.7896 246.289 82.6035 252.098 77.3013C259.285 70.7749 265.428 67.4671 270.527 67.3781C275.626 67.2891 276.852 68.768 278.505 71.7396C279.331 73.2254 279.758 74.8182 279.793 76.8179C279.828 78.8175 279.73 78.9193 279.549 80.0226C278.366 86.7443 273.994 94.1217 266.333 102.157C271.684 99.2628 282.711 94.9697 299.312 89.1791C306.669 86.6503 312.047 85.3562 315.543 85.0952C316.643 85.076 317.55 85.4602 318.362 86.1462C319.174 86.8321 319.49 87.7267 319.611 88.9248C319.63 90.0246 319.246 90.9315 318.46 91.7453C317.774 92.5574 316.879 92.8731 315.781 92.9922C312.985 93.2411 308.007 94.5282 301.05 97.05C294.093 99.5718 286.837 102.199 279.186 105.033C265.673 110.169 257.118 112.819 253.519 112.882C249.919 112.945 248.898 111.762 248.857 109.363C248.815 106.963 249.802 106.246 251.874 104.609C258.188 99.5984 262.905 94.8153 266.126 90.2584C270.033 84.8894 271.956 80.4552 271.896 77.0557C271.837 73.6562 271.877 75.9559 271.672 75.6594C271.567 75.3612 271.063 75.17 270.363 75.1822C267.564 75.231 263.31 77.9057 257.3 83.1114C253.461 86.6789 250.237 91.0358 247.526 96.1839C244.814 101.232 242.602 106.271 240.887 111.202C239.173 116.133 237.845 120.257 236.901 123.474C236.243 125.885 235.476 127.799 234.801 129.211C234.025 130.625 232.938 131.344 231.338 131.372L231.34 131.472ZM317.188 110.57L316.988 110.574C314.389 110.619 313.064 109.242 313.015 106.443C312.855 97.244 316.717 83.5745 324.505 65.6358C330.372 52.2314 336.36 40.025 342.472 29.2167C348.584 18.4084 352.576 12.1378 354.449 10.6048C355.24 10.091 355.937 9.87877 356.637 9.86656C357.336 9.85434 357.336 9.85434 357.94 10.0438C358.54 10.0334 359.25 10.6211 359.866 11.5104C360.378 12.2016 360.59 12.898 360.604 13.6979C360.618 14.4978 360.616 14.3978 360.429 15.1012C360.439 15.7011 359.85 16.3115 358.962 17.0271C357.487 18.453 353.887 24.2167 348.362 34.3147C342.837 44.4126 337.237 55.9121 331.561 68.8132C329.16 74.4559 326.956 79.9952 325.147 85.2276C327.575 81.0846 330.11 77.3398 332.75 73.8932C337.048 68.0173 340.797 65.0514 343.997 64.9955C347.196 64.9397 347.715 66.0308 349.155 68.306C349.774 69.3954 350.506 71.1829 351.148 73.5721C351.998 76.4577 353.154 79.638 354.616 83.213C357.959 91.3559 362.442 96.0784 367.966 97.3822C368.969 97.5647 369.972 97.7472 371.072 97.728C373.472 97.6861 376.459 96.9339 380.132 95.3695C383.806 93.8052 388.646 90.3202 394.554 85.0163C395.342 84.3024 396.136 83.9885 397.136 83.971C398.136 83.9536 397.636 83.9623 398.136 83.9536C398.736 83.9431 399.344 84.4326 400.057 85.1202C400.77 85.9079 401.184 86.7008 401.202 87.7006C401.219 88.7005 401.209 88.1006 401.219 88.7005C401.23 89.3004 400.84 89.9073 400.054 90.7211C392.571 97.4528 385.945 101.769 380.281 103.868C376.902 105.127 373.813 105.781 371.014 105.83C364.814 105.938 359.468 103.331 354.876 98.1107C351.916 94.6619 349.548 90.8026 347.778 86.8329C346.107 82.7614 344.745 79.1847 343.791 76.1008L343.152 73.9116C339.214 77.4809 333.268 86.386 325.416 100.625C323.767 103.554 322.309 105.98 320.94 107.804C319.672 109.627 318.39 110.649 317.092 110.772L317.188 110.57ZM427.569 114.245C418.67 114.4 413.547 107.388 412.3 93.2078C409.828 94.8512 406.963 96.9015 403.507 99.4622C403.311 99.6656 403.213 99.7674 403.113 99.7691C396.204 105.091 391.351 107.776 388.751 107.821C386.151 107.866 387.549 107.742 386.946 107.552C385.132 106.784 384.312 105.598 384.278 103.698C384.245 101.799 384.631 100.992 385.401 99.2782C387.04 95.749 389.277 92.1094 392.112 88.3594C394.945 84.5093 398.089 81.254 401.639 78.3916C406.276 74.7101 410.744 72.8318 415.043 72.7568C419.342 72.6818 418.648 72.9939 420.36 73.6641C421.973 74.4361 422.794 75.622 422.822 77.2217C422.85 78.8215 422.84 78.2216 422.648 78.725C421.876 80.3387 420.691 81.1595 418.991 81.1892C417.291 81.2189 417.991 81.2066 417.588 81.0136C416.782 80.7277 415.981 80.6416 415.181 80.6556C412.781 80.6975 409.904 82.0479 406.45 84.7086C403.096 87.3675 400.151 90.5194 397.516 94.266C400.575 91.9122 403.933 89.4532 407.692 87.0873C410.758 85.1335 413.242 84.19 415.042 84.1586C418.242 84.1027 419.971 85.7728 420.03 89.1723C420.27 97.1693 421.46 102.349 423.7 104.611C424.721 105.793 426.133 106.468 427.733 106.44C430.432 106.393 433.711 105.136 437.668 102.666C443.407 99.0658 448.727 94.4722 453.83 88.8823C455.697 86.9495 456.676 85.7322 456.871 85.4287C457.543 83.8168 458.728 82.9959 460.428 82.9663C462.128 82.9366 461.43 83.0488 462.033 83.2383C463.04 83.6208 463.752 84.3085 464.169 85.3013C464.378 85.7978 464.485 86.196 464.494 86.6959C464.503 87.1958 464.411 87.6975 464.122 88.3026C463.931 88.806 462.757 90.3268 460.599 92.7648C454.519 99.672 448.214 105.183 441.785 109.296C436.641 112.586 431.97 114.268 427.671 114.343L427.569 114.245ZM464.9 109.992C464.501 109.999 464.101 110.006 463.699 109.913C458.886 109.197 456.415 105.14 456.289 97.9408C456.163 90.7419 456.749 89.9316 457.865 85.1113C458.797 81.1945 459.553 78.6809 460.13 77.3706C460.908 76.0569 462.095 75.336 463.495 75.3116C464.895 75.2872 464.798 75.4889 465.403 75.7783C466.717 76.5555 467.436 77.6432 467.462 79.1429C467.489 80.6427 467.285 80.4462 466.997 81.1513C466.515 82.1599 465.85 84.1718 465.204 87.2836C464.372 91.1987 463.932 94.6069 463.984 97.6064C464.037 100.606 464.237 100.602 464.556 101.697C464.559 101.897 464.561 101.997 464.561 101.997L464.761 101.994C465.161 101.987 465.757 101.776 466.748 101.259C469.52 99.6101 472.271 96.7617 475.002 92.8134C477.734 88.8652 480.267 85.0204 482.402 81.2825C484.437 77.5464 486.193 75.0154 487.465 73.393C489.039 71.8653 490.726 71.1357 492.526 71.1043C495.326 71.0554 499.663 73.18 505.441 77.5799C508.277 79.6307 511.312 81.578 514.644 83.4201C518.48 85.4535 522.099 86.4905 525.598 86.4294C529.098 86.3683 531.777 85.1214 534.631 82.4712C535.418 81.7573 536.313 81.4417 537.213 81.426C538.113 81.4103 537.613 81.419 538.113 81.4103C538.713 81.3998 539.32 81.7892 540.033 82.5769C540.747 83.3646 541.163 84.2575 541.179 85.1573C541.194 86.0572 541.186 85.5573 541.194 86.0572C541.203 86.5571 540.715 87.2657 540.028 87.9778C535.3 92.161 530.636 94.2427 526.036 94.323L522.437 94.3858C520.137 94.426 516.817 93.2837 512.577 91.0574C508.338 88.831 504.493 86.2977 500.846 83.661C495.986 80.2453 493.357 78.5909 493.157 78.5944C492.274 79.61 490.911 81.7341 488.969 85.0685C486.541 89.2115 483.815 93.4597 480.594 98.0166C477.373 102.574 473.929 105.834 470.267 107.998C468.186 109.135 466.297 109.768 464.597 109.798L464.9 109.992ZM530.16 141.458C528.76 141.483 527.751 141 526.934 140.014C526.422 139.323 526.108 138.528 526.092 137.629L526.083 137.129C527.124 128.009 528.929 116.776 531.596 103.427C534.264 90.0788 537.624 76.318 541.777 62.1434C543.381 56.6145 545.185 51.0822 547.094 45.8481L535.702 46.447C515.716 47.396 502.128 48.2332 494.94 48.9588L494.54 48.9658C493.54 48.9832 492.735 48.6972 491.925 48.1113C491.011 47.3271 490.595 46.4342 490.576 45.3344C490.557 44.2346 490.843 43.4294 491.529 42.6174C492.115 41.807 493.008 41.3914 494.104 41.1722C499.694 40.5745 513.282 39.7373 534.966 38.6587C535.866 38.643 540.862 38.3557 549.955 37.8969C554.166 27.0218 558.803 17.6394 563.966 9.74814C564.847 8.6326 565.836 8.01524 567.136 7.99255C568.436 7.96986 568.639 8.16634 569.348 8.65405C570.462 9.43473 571.081 10.5241 571.105 11.9239C571.13 13.3237 570.931 13.4271 570.444 14.1358C566.158 20.7116 562.191 28.382 558.549 37.4469C564.644 37.1405 569.638 36.7533 573.632 36.3835L573.932 36.3783C574.932 36.3608 575.737 36.6468 576.548 37.2327C577.461 38.0169 577.879 39.0098 577.898 40.1096C577.917 41.2094 577.631 42.0146 576.945 42.8267C576.259 43.6387 575.367 44.0544 574.268 44.1736C569.574 44.5556 563.281 44.9655 555.387 45.4033C553.194 51.5425 551.104 57.8799 549.118 64.4156C545.061 78.3885 541.696 91.8493 539.025 104.998C536.452 118.045 534.644 129.078 533.7 137.996C533.519 139.099 533.035 140.008 532.245 140.622C531.554 141.134 530.759 141.448 529.96 141.462L530.16 141.458ZM582.43 104.94L581.03 104.965C577.231 105.031 573.921 104.489 571 103.34C567.173 101.806 564.725 99.0485 563.659 95.2665C563.443 94.3702 563.327 93.472 563.31 92.4722C563.278 90.6725 563.638 88.3658 564.491 85.6505C565.242 82.837 567.179 79.2027 570.203 74.8492C570.984 73.7354 571.973 73.118 573.273 73.0954C574.573 73.0727 574.876 73.2674 575.587 73.8551C576.7 74.6358 577.22 75.7269 577.242 77.0267C577.265 78.3265 577.068 78.5299 576.581 79.2386C572.879 84.904 570.953 89.1383 571.002 91.9379C571.05 94.7374 571.019 92.9377 571.226 93.3342C571.971 95.9216 575.093 97.1673 580.693 97.0695C586.292 96.9718 593.564 95.3446 600.711 92.2194C607.261 89.3047 612.699 85.7092 616.92 81.1348C617.706 80.321 618.699 79.9036 619.799 79.8844C620.898 79.8652 621.605 80.2529 622.417 80.9389C623.231 81.7248 623.647 82.6177 623.668 83.8175C623.689 85.0173 623.299 85.6242 622.613 86.4363C617.603 91.6245 611.377 95.9338 603.733 99.1677C596.19 102.5 589.02 104.325 582.227 104.744L582.43 104.94ZM662.492 61.9366C662.222 63.6416 661.439 64.6554 659.948 65.1815C656.899 68.1351 652.557 71.5114 647.021 75.2086C642.076 78.3954 637.222 81.0805 632.361 83.3657L632.561 83.3622C639.009 86.0501 646.952 88.4118 656.294 90.7491C664.327 92.6092 671.646 93.5816 678.145 93.4682C684.644 93.3548 687.629 92.5025 691.901 90.8277C696.172 89.1529 699.316 85.8976 701.232 81.0634C701.902 79.3514 703.088 78.5306 704.787 78.5009C706.487 78.4713 705.687 78.4852 706.191 78.6765C707.903 79.3467 708.723 80.5326 708.753 82.2323C708.783 83.932 708.769 83.1322 708.578 83.6356C704.076 95.0159 694.075 100.791 678.677 101.06C663.279 101.329 675.678 101.112 671.675 100.982C667.672 100.852 661.955 99.9517 654.523 98.1812C644.479 95.7561 635.932 93.1049 628.78 90.2292C626.541 99.4697 625.199 108.495 624.756 117.504C624.675 118.605 624.191 119.514 623.503 120.226C622.816 120.938 621.921 121.254 620.821 121.273C619.721 121.292 618.714 120.91 618.001 120.122C617.287 119.334 616.869 118.341 616.852 117.342L616.848 117.142C617.369 106.831 618.988 96.5011 621.608 86.1538C620.109 86.18 618.897 85.501 617.976 84.3169C617.564 83.624 617.353 83.0276 617.341 82.3277C617.318 81.0279 617.799 79.9193 618.885 79.1002L619.085 79.0967C619.774 78.4846 620.471 78.2724 621.27 78.2585L622.37 78.2393C622.67 78.234 623.17 78.2253 623.967 78.0114C627.271 66.752 631.18 55.7821 635.592 45.0035C640.005 34.2248 644.428 24.0461 648.863 14.5672L652.907 5.59527C653.681 4.08154 654.767 3.26246 656.366 3.23454C657.966 3.20661 657.468 3.31532 658.073 3.60481C659.587 4.37851 660.408 5.56436 660.436 7.16412C660.464 8.76388 660.355 8.2657 660.064 8.77086L658.332 12.7017C652.941 24.6976 648.226 35.3815 644.191 44.8534C640.256 54.3235 636.625 64.0883 633.497 73.9444C636.669 72.2888 639.737 70.435 642.901 68.3795C646.857 65.81 650.023 63.8545 652.399 62.4128C653.983 61.485 654.774 60.9711 654.872 60.8694C654.856 59.9695 655.244 59.2627 655.932 58.5505C656.618 57.7385 657.611 57.3211 658.81 57.3001C660.01 57.2792 660.415 57.5722 661.226 58.1581C662.24 58.9405 662.659 60.0334 662.688 61.7331L662.492 61.9366Z" fill="white"/>
<path d="M593.1 61.1512C593.1 67.2364 585.286 76.6226 579.322 69.6037C574.749 64.2208 584.09 55.1 589.557 55.1" stroke="url(#paint0_linear_1_59)" stroke-width="5" stroke-linecap="round"/>
<path d="M72.8687 184.513C74.9489 184.353 77.2077 183.352 78.8789 182.822C109.383 173.153 140.613 164.623 173.219 158.836C230.397 148.69 289.592 144.275 349.201 143.961C383.391 143.781 428.356 145.609 463.377 149.524C568.538 161.279 443.825 148.315 508.469 159.153" stroke="url(#paint1_linear_1_59)" stroke-width="7" stroke-linecap="round"/>
<defs>
<linearGradient id="paint0_linear_1_59" x1="593.1" y1="63.6" x2="578.1" y2="63.6" gradientUnits="userSpaceOnUse">
<stop stop-color="#00E5FF"/>
<stop offset="0.5" stop-color="#D0ED01"/>
<stop offset="0.75" stop-color="#FFD12A"/>
<stop offset="1" stop-color="#FF1CFC"/>
</linearGradient>
<linearGradient id="paint1_linear_1_59" x1="76.8214" y1="146.905" x2="505.026" y2="191.911" gradientUnits="userSpaceOnUse">
<stop stop-color="#00E5FF"/>
<stop offset="0.5" stop-color="#D0ED01"/>
<stop offset="0.75" stop-color="#FFD12A"/>
<stop offset="1" stop-color="#FF1CFC"/>
</linearGradient>
</defs>
</svg>
